<svg xmlns="http://www.w3.org/2000/svg" width="91" height="91" viewBox="0 0 91 91" fill="none">
  <path d="M6.125 0.76123H39.875V6.38623H6.125V0.76123ZM51.125 0.76123H84.875V6.38623H51.125V0.76123ZM84.1719 28.8862H79.25V6.38623H56.75V28.8862H34.25V6.38623H11.75V28.8862H6.82812C3.34625 28.8862 0.5 31.7325 0.5 35.2144V84.4331C0.5 87.915 3.34625 90.7612 6.82812 90.7612H33.5469C37.0288 90.7612 39.875 87.915 39.875 84.4331V51.3862H51.125V84.4331C51.125 87.915 53.9712 90.7612 57.4531 90.7612H84.1719C87.6537 90.7612 90.5 87.915 90.5 84.4331V35.2144C90.5 31.7325 87.6537 28.8862 84.1719 28.8862ZM31.0888 85.1362H9.29187C7.55375 85.1362 6.125 83.8706 6.125 82.3237C6.125 80.7769 7.54812 79.5112 9.29187 79.5112H31.0888C32.8269 79.5112 34.2556 80.7769 34.2556 82.3237C34.2556 83.8706 32.8325 85.1362 31.0888 85.1362ZM48.3125 45.7612H42.6875C41.1406 45.7612 39.875 44.4956 39.875 42.9487C39.875 41.4019 41.1406 40.1362 42.6875 40.1362H48.3125C49.8594 40.1362 51.125 41.4019 51.125 42.9487C51.125 44.4956 49.8594 45.7612 48.3125 45.7612ZM81.7137 85.1362H59.9169C58.1787 85.1362 56.75 83.8706 56.75 82.3237C56.75 80.7769 58.1731 79.5112 59.9169 79.5112H81.7137C83.4519 79.5112 84.8806 80.7769 84.8806 82.3237C84.8806 83.8706 83.4575 85.1362 81.7137 85.1362Z" fill="#3C5E7A"/>
</svg>