<svg xmlns="http://www.w3.org/2000/svg" width="96" height="100" viewBox="0 0 96 100" fill="none">
  <path d="M4 26.9904L46.7595 45.9948L49.6538 39.4822L6.89434 20.478L4 26.9904ZM51.7699 95V42.7384H44.6433V95H51.7699ZM49.6538 45.9948L92.4133 26.9904L89.5189 20.478L46.7595 39.4822L49.6538 45.9948Z" fill="#E4694E"/>
  <path d="M5.44714 74.1445V25.5879C5.44714 24.4614 6.11058 23.4405 7.14004 22.983L47.0488 5.24569C47.7861 4.9181 48.6271 4.9181 49.3644 5.24569L89.2733 22.983C90.3028 23.4405 90.9661 24.4614 90.9661 25.5879V74.1445C90.9661 75.271 90.3028 76.292 89.2733 76.7495L49.3644 94.4866C48.6271 94.8139 47.7861 94.8139 47.0488 94.4866L7.14004 76.7495C6.11058 76.292 5.44714 75.271 5.44714 74.1445Z" stroke="#E4694E" stroke-width="9.05702" stroke-linecap="round" stroke-linejoin="round"/>
  <path d="M26.8269 14.2329L67.8936 32.4847C68.9231 32.9423 69.5864 33.9631 69.5864 35.0897V52.2413" stroke="#E4694E" stroke-width="9.05702" stroke-linecap="round" stroke-linejoin="round"/>
</svg>